HIERARCHY
ROOT Hips
{
	OFFSET 0.00000 0.00000 0.00000
	CHANNELS 6 Xposition Yposition Zposition Zrotation Yrotation Xrotation 
	JOINT LHipJoint
	{
		OFFSET 0 0 0
		CHANNELS 3 Zrotation Yrotation Xrotation
		JOINT LeftUpLeg
		{
			OFFSET 1.64577 -1.42384 0.94276
			CHANNELS 3 Zrotation Yrotation Xrotation
			JOINT LeftLeg
			{
				OFFSET 2.11538 -5.81197 0.00000
				CHANNELS 3 Zrotation Yrotation Xrotation
				JOINT LeftFoot
				{
					OFFSET 2.36541 -6.49893 0.00000
					CHANNELS 3 Zrotation Yrotation Xrotation
					JOINT LeftToeBase
					{
						OFFSET 0.17759 -0.48793 1.73865
						CHANNELS 3 Zrotation Yrotation Xrotation
						End Site
						{
							OFFSET 0.00000 -0.00000 0.91205
						}
					}
				}
			}
		}
	}
	JOINT RHipJoint
	{
		OFFSET 0 0 0
		CHANNELS 3 Zrotation Yrotation Xrotation
		JOINT RightUpLeg
		{
			OFFSET -1.43750 -1.42384 0.94276
			CHANNELS 3 Zrotation Yrotation Xrotation
			JOINT RightLeg
			{
				OFFSET -2.10480 -5.78291 0.00000
				CHANNELS 3 Zrotation Yrotation Xrotation
				JOINT RightFoot
				{
					OFFSET -2.34880 -6.45329 0.00000
					CHANNELS 3 Zrotation Yrotation Xrotation
					JOINT RightToeBase
					{
						OFFSET -0.22842 -0.62757 1.80469
						CHANNELS 3 Zrotation Yrotation Xrotation
						End Site
						{
							OFFSET -0.00000 -0.00000 0.95886
						}
					}
				}
			}
		}
	}
	JOINT LowerBack
	{
		OFFSET 0 0 0
		CHANNELS 3 Zrotation Yrotation Xrotation
		JOINT Spine
		{
			OFFSET 0.06217 1.93758 -0.49272
			CHANNELS 3 Zrotation Yrotation Xrotation
			JOINT Spine1
			{
				OFFSET -0.03114 2.03621 -0.05830
				CHANNELS 3 Zrotation Yrotation Xrotation
				JOINT Neck
				{
					OFFSET 0 0 0
					CHANNELS 3 Zrotation Yrotation Xrotation
					JOINT Neck1
					{
						OFFSET 0.04421 1.41010 0.26562
						CHANNELS 3 Zrotation Yrotation Xrotation
						JOINT Head
						{
							OFFSET -0.13407 1.43847 0.06181
							CHANNELS 3 Zrotation Yrotation Xrotation
							End Site
							{
								OFFSET -0.04980 1.45844 -0.00689
							}
						}
					}
				}
				JOINT LeftShoulder
				{
					OFFSET 0 0 0
					CHANNELS 3 Zrotation Yrotation Xrotation
					JOINT LeftArm
					{
						OFFSET 2.18382 1.47753 -0.35694
						CHANNELS 3 Zrotation Yrotation Xrotation
						JOINT LeftForeArm
						{
							OFFSET 5.05460 -0.00000 0.00000
							CHANNELS 3 Zrotation Yrotation Xrotation
							JOINT LeftHand
							{
								OFFSET 3.39013 -0.00000 0.00000
								CHANNELS 3 Zrotation Yrotation Xrotation
								JOINT LeftFingerBase
								{
									OFFSET 0 0 0
									CHANNELS 3 Zrotation Yrotation Xrotation
									JOINT LeftHandIndex1
									{
										OFFSET 0.57242 -0.00000 -0.00000
										CHANNELS 3 Zrotation Yrotation Xrotation
										End Site
										{
											OFFSET 0.46150 -0.00000 -0.00000
										}
									}
								}
								JOINT LThumb
								{
									OFFSET 0 0 0
									CHANNELS 3 Zrotation Yrotation Xrotation
									End Site
									{
										OFFSET 0.46855 -0.00000 0.46855
									}
								}
							}
						}
					}
				}
				JOINT RightShoulder
				{
					OFFSET 0 0 0
					CHANNELS 3 Zrotation Yrotation Xrotation
					JOINT RightArm
					{
						OFFSET -2.06033 1.72839 -0.47437
						CHANNELS 3 Zrotation Yrotation Xrotation
						JOINT RightForeArm
						{
							OFFSET -5.07010 -0.00000 0.00000
							CHANNELS 3 Zrotation Yrotation Xrotation
							JOINT RightHand
							{
								OFFSET -3.14957 -0.00000 -0.00000
								CHANNELS 3 Zrotation Yrotation Xrotation
								JOINT RightFingerBase
								{
									OFFSET 0 0 0
									CHANNELS 3 Zrotation Yrotation Xrotation
									JOINT RightHandIndex1
									{
										OFFSET -0.71819 -0.00000 -0.00000
										CHANNELS 3 Zrotation Yrotation Xrotation
										End Site
										{
											OFFSET -0.57902 -0.00000 -0.00000
										}
									}
								}
								JOINT RThumb
								{
									OFFSET 0 0 0
									CHANNELS 3 Zrotation Yrotation Xrotation
									End Site
									{
										OFFSET -0.58786 -0.00000 0.58786
									}
								}
							}
						}
					}
				}
			}
		}
	}
}
MOTION
Frames: 12
Frame Time: .0083333
-30.5532 14.8773 1.018 0 0 0 0 0 0 -21 0 0 0 0 0 0 0 0 0 0 0 0 0 0 21 0 0 0 0 0 0 0 0 0 0 0 0 0 0 0 0 0 0 0 0 0 0 -16 0 0 21 0 0 11 0 0 0 -8 0 0 0 0 0 0 0 0 0 0 0 0 0 0 0 0 0 0 0 0 8 0 0 0 0 0 0 0 0 0 0 0 0 0 0 0 0 0
-30.5532 14.8773 1.0180 -4.5335 88.4311 -7.6707 0.0000 0.0000 0.0000 -23.3608 -17.8218 -2.4144 3.3303 11.2115 32.9964 1.4664 12.5217 -30.4150 0.3074 -3.5643 -9.8539 0.0000 0.0000 0.0000 25.1909 16.1021 -3.3064 -3.3222 -11.1992 32.9547 -2.4341 -17.5149 -39.7837 -0.7398 5.4947 -15.3251 -0.6306 2.5814 7.2155 -1.7140 3.4348 2.5763 -1.6911 1.7516 -1.3112 5.8571 2.8036 -10.1335 0.2561 3.0186 18.3669 -0.5901 1.9678 7.4076 0.0000 -0.0000 0.0000 -83.1601 3.4792 42.2271 16.0653 -25.6091 -3.6741 -0.0000 -0.0000 2.0988 15.6809 11.5973 3.2301 -7.1250 0.0000 -0.0000 -10.2593 41.7890 0.8222 0.0000 -0.0000 0.0000 90.4722 -8.6872 26.6554 -20.3548 31.0674 -5.7133 0.0000 -0.0000 -4.4455 -6.0765 1.3705 -0.1459 7.1250 -0.0000 -0.0000 15.7765 -28.4439 6.5889
-30.5549 14.8774 1.0209 -12.8400 88.3745 -16.0390 0.0000 0.0000 0.0000 -23.1014 -17.8445 -2.4792 3.3850 11.2936 33.2765 1.4952 12.4475 -30.5400 0.3217 -3.6455 -10.0814 0.0000 0.0000 0.0000 25.5707 16.3404 -3.1068 -3.3274 -11.2071 32.9817 -2.4827 -17.5461 -40.0366 -0.6823 5.2813 -14.7127 -0.3573 2.5637 7.3217 -1.6841 3.4278 2.5574 -1.8185 1.7481 -1.3756 6.0122 2.8675 -10.0593 0.2993 3.0804 18.4120 -0.5959 2.0144 7.4139 -0.0000 -0.0000 0.0000 -83.1159 3.4861 42.3906 16.0372 -25.5711 -3.6620 -0.0000 -0.0000 1.8351 16.7782 11.5118 3.4434 -7.1250 0.0000 -0.0000 -9.2771 41.8064 0.7379 -0.0000 -0.0000 0.0000 90.5329 -8.8784 27.8975 -20.5515 31.3010 -5.8151 0.0000 -0.0000 -7.7037 -8.7208 0.4034 -0.0619 7.1250 -0.0000 -0.0000 13.9031 -29.4273 5.4238
-30.5553 14.8630 1.0252 -11.0543 88.4003 -14.2607 0.0000 0.0000 0.0000 -22.3689 -15.4047 -3.7541 3.3960 11.3100 33.3327 1.5032 10.6039 -29.1374 0.4525 -4.3157 -11.9666 0.0000 0.0000 0.0000 25.5022 16.2445 -3.2183 -3.3480 -11.2382 33.0874 -2.4773 -17.4883 -39.9655 -0.6905 5.3122 -14.8013 -0.4334 2.5581 7.3248 -1.7135 3.4148 2.5541 -1.8055 1.7417 -1.3836 6.1761 2.9454 -10.0797 0.2989 3.1616 18.5436 -0.6134 2.0688 7.4670 -0.0000 -0.0000 0.0000 -83.0724 3.4627 42.6204 16.0432 -25.5792 -3.6646 -0.0000 -0.0000 1.4446 17.7986 11.5282 3.6711 -7.1250 0.0000 -0.0000 -8.3810 41.9217 0.6414 -0.0000 -0.0000 0.0000 90.5798 -9.0512 29.0569 -20.7829 31.5740 -5.9358 0.0000 -0.0000 -10.9272 -11.3981 -0.1471 0.0297 7.1250 -0.0000 -0.0000 11.9089 -30.0156 4.4409
-30.5504 14.8696 1.0275 -4.9663 88.2611 -8.1140 0.0000 0.0000 0.0000 -22.7750 -16.1893 -3.3531 3.3916 11.3034 33.3102 1.5233 11.2229 -29.7463 0.3757 -3.9369 -10.8992 0.0000 0.0000 0.0000 25.3059 16.2585 -3.2961 -3.3550 -11.2487 33.1233 -2.4507 -17.4382 -39.8005 -0.7240 5.4371 -15.1596 -0.5936 2.5858 7.1597 -1.7621 3.4430 2.5639 -1.7592 1.7560 -1.2877 6.3062 3.0384 -10.0999 0.2593 3.2762 18.6731 -0.6350 2.1328 7.5203 -0.0000 -0.0000 0.0000 -83.0346 3.4830 42.9009 16.1455 -25.7176 -3.7089 -0.0000 -0.0000 0.6668 18.9695 11.5613 3.9408 -7.1250 0.0000 -0.0000 -7.3515 42.0703 0.5345 -0.0000 -0.0000 0.0000 90.5718 -9.2178 30.3969 -21.0930 31.9368 -6.0991 0.0000 -0.0000 -14.5740 -14.5371 -0.5456 0.1415 7.1250 -0.0000 -0.0000 9.5047 -30.4670 3.4150
-30.5480 14.8707 1.0298 -2.8379 88.1786 -5.9637 0.0000 0.0000 0.0000 -22.8804 -16.3154 -3.2524 3.3818 11.2888 33.2603 1.5272 11.3606 -29.8792 0.3582 -3.8449 -10.6408 0.0000 0.0000 0.0000 25.2395 16.2850 -3.3402 -3.3667 -11.2663 33.1834 -2.4631 -17.3567 -39.7936 -0.7219 5.4294 -15.1373 -0.6627 2.5934 7.0865 -1.7792 3.4494 2.5640 -1.7349 1.7592 -1.2499 6.4020 3.0875 -10.0870 0.2173 3.3373 18.7142 -0.6581 2.1662 7.5363 -0.0000 0.0000 0.0000 -83.0140 3.4938 43.1244 16.2027 -25.7947 -3.7337 -0.0000 -0.0000 0.1107 19.9921 11.5157 4.1541 -7.1250 0.0000 -0.0000 -6.4358 42.1239 0.4588 -0.0000 0.0000 0.0000 90.5574 -9.3778 31.4902 -21.3528 32.2378 -6.2371 0.0000 -0.0000 -17.6367 -17.1485 -0.6413 0.1979 7.1250 -0.0000 -0.0000 7.4601 -30.6035 2.6430
-30.5455 14.8729 1.0315 -0.7546 88.0933 -3.8549 0.0000 0.0000 0.0000 -23.0662 -16.6448 -2.9801 3.3467 11.2362 33.0807 1.5153 11.7079 -30.0747 0.3323 -3.7047 -10.2474 0.0000 0.0000 0.0000 25.1597 16.2876 -3.3601 -3.3632 -11.2610 33.1654 -2.4672 -17.2855 -39.7565 -0.7189 5.4182 -15.1054 -0.7436 2.5989 7.0073 -1.7854 3.4525 2.5650 -1.6921 1.7605 -1.2092 6.4509 3.1114 -10.0671 0.1625 3.3737 18.7160 -0.6808 2.1819 7.5364 -0.0000 0.0000 0.0000 -83.0157 3.5045 43.3067 16.2599 -25.8718 -3.7587 -0.0000 0.0000 -0.3793 20.8483 11.4364 4.3182 -7.1250 0.0000 -0.0000 -5.6608 42.1258 0.4028 -0.0000 0.0000 0.0000 90.5146 -9.5127 32.3755 -21.5751 32.4935 -6.3561 0.0000 -0.0000 -20.1419 -19.2941 -0.5340 0.1870 7.1250 -0.0000 -0.0000 5.7591 -30.5180 2.0460
-30.5433 14.8755 1.0325 0.6999 88.0164 -2.3812 0.0000 0.0000 0.0000 -23.2889 -17.1359 -2.6502 3.3225 11.1997 32.9563 1.5063 12.1619 -30.3790 0.3034 -3.5417 -9.7908 0.0000 0.0000 0.0000 25.0974 16.2912 -3.3757 -3.3613 -11.2581 33.1553 -2.4762 -17.2093 -39.7384 -0.7118 5.3920 -15.0300 -0.8097 2.5988 6.9383 -1.7786 3.4491 2.5679 -1.6442 1.7585 -1.1724 6.4574 3.1128 -10.0309 0.1032 3.3876 18.6777 -0.7009 2.1824 7.5187 -0.0000 0.0000 0.0000 -83.0405 3.5108 43.4219 16.3068 -25.9348 -3.7791 -0.0000 0.0000 -0.7346 21.4459 11.2600 4.3861 -7.1250 0.0000 -0.0000 -5.1007 41.9985 0.3788 -0.0000 0.0000 0.0000 90.4513 -9.6125 33.0055 -21.7360 32.6774 -6.4427 0.0000 -0.0000 -21.9136 -20.8312 -0.3704 0.1409 7.1250 -0.0000 -0.0000 4.5358 -30.3596 1.6258
-30.5415 14.8773 1.0332 1.7848 87.9601 -1.2862 0.0000 0.0000 0.0000 -23.4730 -17.5277 -2.3754 3.3017 11.1681 32.8490 1.4956 12.5361 -30.6150 0.2835 -3.4244 -9.4626 0.0000 0.0000 0.0000 25.0471 16.2851 -3.3839 -3.3596 -11.2557 33.1470 -2.4833 -17.1420 -39.7189 -0.7045 5.3647 -14.9517 -0.8624 2.5909 6.8843 -1.7651 3.4363 2.5740 -1.5969 1.7517 -1.1405 6.4265 3.0956 -9.9798 0.0490 3.3818 18.6076 -0.7156 2.1704 7.4863 -0.0000 -0.0000 0.0000 -83.0835 3.5098 43.4636 16.3418 -25.9819 -3.7945 -0.0000 0.0000 -0.9354 21.7618 11.0282 4.3668 -7.1250 0.0000 -0.0000 -4.7845 41.7831 0.3807 -0.0000 -0.0000 0.0000 90.3797 -9.6743 33.3848 -21.8298 32.7841 -6.4934 0.0000 -0.0000 -22.9483 -21.7683 -0.2683 0.1071 7.1250 -0.0000 -0.0000 3.7912 -30.2573 1.3671
-30.5401 14.8780 1.0336 2.8304 87.9303 -0.2374 0.0000 0.0000 0.0000 -23.5924 -17.7271 -2.2194 3.2879 11.1471 32.7775 1.4865 12.7475 -30.7307 0.2755 -3.3762 -9.3279 0.0000 0.0000 0.0000 24.9981 16.2650 -3.3865 -3.3577 -11.2527 33.1371 -2.4799 -17.1091 -39.6768 -0.7050 5.3666 -14.9573 -0.9075 2.5754 6.8380 -1.7522 3.4142 2.5858 -1.5540 1.7405 -1.1066 6.3953 3.0742 -9.9219 -0.0055 3.3710 18.5377 -0.7309 2.1561 7.4526 -0.0000 0.0000 0.0000 -83.1360 3.4980 43.4463 16.3684 -26.0176 -3.8061 -0.0000 0.0000 -1.0066 21.8344 10.7410 4.2705 -7.1250 0.0000 -0.0000 -4.6777 41.4839 0.4067 -0.0000 0.0000 0.0000 90.3137 -9.7017 33.5666 -21.8701 32.8299 -6.5153 0.0000 -0.0000 -23.4042 -22.2440 -0.2610 0.1067 7.1250 -0.0000 -0.0000 3.4153 -30.2525 1.2314
-30.5389 14.8780 1.0338 3.4837 87.8993 0.4140 0.0000 0.0000 0.0000 -23.6337 -17.7353 -2.1818 3.2820 11.1381 32.7471 1.4828 12.8004 -30.7509 0.2753 -3.3749 -9.3242 0.0000 0.0000 0.0000 24.9658 16.2467 -3.3814 -3.3554 -11.2492 33.1250 -2.4648 -17.1082 -39.6044 -0.7146 5.4021 -15.0591 -0.9285 2.5624 6.7960 -1.7414 3.3971 2.6027 -1.5272 1.7319 -1.0680 6.3636 3.0527 -9.8698 -0.0507 3.3580 18.4775 -0.7431 2.1420 7.4229 -0.0000 -0.0000 0.0000 -83.1860 3.4726 43.3901 16.3888 -26.0450 -3.8151 -0.0000 0.0000 -0.9819 21.6996 10.4885 4.1433 -7.1250 0.0000 -0.0000 -4.7606 41.2022 0.4471 -0.0000 -0.0000 0.0000 90.2643 -9.6979 33.5864 -21.8676 32.8271 -6.5139 0.0000 -0.0000 -23.4049 -22.3557 -0.3513 0.1445 7.1250 -0.0000 -0.0000 3.3305 -30.3508 1.1930
-30.5374 14.8778 1.0340 2.4045 87.8567 -0.6832 0.0000 0.0000 0.0000 -23.6081 -17.7373 -2.1476 3.2842 11.1416 32.7588 1.4875 12.8286 -30.8039 0.2738 -3.3656 -9.2984 0.0000 0.0000 0.0000 25.0169 16.2474 -3.3374 -3.3492 -11.2400 33.0936 -2.4453 -17.1361 -39.5344 -0.7251 5.4409 -15.1704 -0.8744 2.5569 6.7672 -1.7210 3.3947 2.6264 -1.5340 1.7311 -1.0259 6.3476 3.0298 -9.8280 -0.0899 3.3388 18.4293 -0.7562 2.1269 7.3991 -0.0000 0.0000 0.0000 -83.2181 3.4355 43.3592 16.4117 -26.0757 -3.8251 -0.0000 0.0000 -0.9656 21.5203 10.3355 4.0467 -7.1250 0.0000 -0.0000 -4.8967 41.0225 0.4816 -0.0000 0.0000 0.0000 90.2369 -9.6879 33.5824 -21.8651 32.8242 -6.5126 0.0000 -0.0000 -23.3952 -22.4476 -0.4545 0.1878 7.1250 -0.0000 -0.0000 3.2619 -30.4628 1.1596
